<svg width="14" height="16" viewBox="0 0 14 16" fill="none" xmlns="http://www.w3.org/2000/svg">
<path d="M4.99999 8.66665H8.99999M4.99999 11.3333H6.99999M1.66666 2.66665V13.3333C1.66666 13.6869 1.80713 14.0261 2.05718 14.2761C2.30723 14.5262 2.64637 14.6666 2.99999 14.6666H11C11.3536 14.6666 11.6928 14.5262 11.9428 14.2761C12.1928 14.0261 12.3333 13.6869 12.3333 13.3333V5.56131C12.3333 5.38369 12.2978 5.20785 12.2289 5.04414C12.16 4.88043 12.059 4.73214 11.932 4.60798L8.97199 1.71331C8.7229 1.46975 8.38837 1.33336 8.03999 1.33331H2.99999C2.64637 1.33331 2.30723 1.47379 2.05718 1.72384C1.80713 1.97389 1.66666 2.31302 1.66666 2.66665V2.66665Z" stroke="#C8B6E2" stroke-width="1.5" stroke-linecap="round" stroke-linejoin="round"/>
</svg>
