<svg width="16" height="16" viewBox="0 0 16 16" fill="none" xmlns="http://www.w3.org/2000/svg">
<path fill-rule="evenodd" clip-rule="evenodd" d="M7.99999 0.666687C3.94999 0.666687 0.666656 3.95002 0.666656 8.00002C0.666656 12.05 3.94999 15.3334 7.99999 15.3334C12.05 15.3334 15.3333 12.05 15.3333 8.00002C15.3333 3.95002 12.05 0.666687 7.99999 0.666687ZM7.26132 5.95669C7.41466 5.65469 7.52799 5.51135 7.62199 5.43669C7.69266 5.38069 7.78866 5.33335 7.99999 5.33335C8.41666 5.33335 8.66666 5.64669 8.66666 5.98535C8.66666 6.17069 8.63066 6.26269 8.53199 6.38002C8.39399 6.54402 8.13866 6.74335 7.63332 7.07735L7.33332 7.27469V8.66669C7.33332 8.8435 7.40356 9.01307 7.52858 9.13809C7.65361 9.26311 7.82318 9.33335 7.99999 9.33335C8.1768 9.33335 8.34637 9.26311 8.47139 9.13809C8.59642 9.01307 8.66666 8.8435 8.66666 8.66669V7.98869C9.02799 7.73935 9.33132 7.50069 9.55132 7.23935C9.86932 6.86202 9.99999 6.45935 9.99999 5.98535C9.99999 5.00535 9.24466 4.00002 7.99999 4.00002C7.54399 4.00002 7.14066 4.11735 6.79466 4.39135C6.47199 4.64669 6.25199 4.99802 6.07199 5.35469C6.03016 5.433 6.0044 5.51888 5.99621 5.60728C5.98802 5.69568 5.99757 5.78483 6.0243 5.86949C6.05103 5.95416 6.09441 6.03263 6.15187 6.1003C6.20934 6.16797 6.27975 6.22349 6.35896 6.26358C6.43817 6.30367 6.5246 6.32754 6.61316 6.33379C6.70172 6.34003 6.79064 6.32852 6.87469 6.29993C6.95875 6.27134 7.03624 6.22626 7.10264 6.16732C7.16903 6.10837 7.22298 6.03676 7.26132 5.95669ZM8.66666 11C8.66666 10.8232 8.59642 10.6536 8.47139 10.5286C8.34637 10.4036 8.1768 10.3334 7.99999 10.3334C7.82318 10.3334 7.65361 10.4036 7.52858 10.5286C7.40356 10.6536 7.33332 10.8232 7.33332 11V11.3334C7.33332 11.5102 7.40356 11.6797 7.52858 11.8048C7.65361 11.9298 7.82318 12 7.99999 12C8.1768 12 8.34637 11.9298 8.47139 11.8048C8.59642 11.6797 8.66666 11.5102 8.66666 11.3334V11Z" fill="#C8B6E2"/>
</svg>
