<svg width="48" height="48" viewBox="0 0 48 48" fill="none" xmlns="http://www.w3.org/2000/svg">
<rect width="48" height="48" rx="8" fill="#A8A4CE"/>
<g clip-path="url(#clip0_2_1113)">
<path d="M29 29.1949C29.7281 28.7842 29.913 27.6695 30.5042 27.0931C31.0953 26.5167 32.2385 26.3375 32.6599 25.627C33.0755 24.9268 32.6685 23.873 32.8877 23.0732C33.099 22.2988 33.9531 21.5879 33.9531 20.75C33.9531 19.9121 33.0536 19.2002 32.8417 18.4278C32.6226 17.628 33.0298 16.5743 32.6143 15.874C32.1932 15.1641 31.0503 14.9843 30.4591 14.4079C29.868 13.8316 29.6836 12.7169 28.9555 12.3061C28.2372 11.9009 27.1565 12.2978 26.3362 12.0839C25.5885 11.877 24.8594 11 24 11C23.1406 11 22.4115 11.877 21.6198 12.0837C20.7969 12.297 19.7188 11.9004 18.999 12.3051C18.2708 12.7159 18.0865 13.8305 17.4953 14.4064C16.9047 14.9828 15.7609 15.1625 15.3396 15.8725C14.924 16.5707 15.3312 17.627 15.112 18.4242C14.8995 19.2012 14 19.9121 14 20.75C14 21.5879 14.8995 22.2998 15.1115 23.0722C15.3306 23.872 14.9232 24.9257 15.3386 25.626C15.7604 26.3359 16.9031 26.5137 17.4938 27.0926C18.0849 27.6689 18.2693 28.7836 18.9979 29.1949C19.7161 29.6001 20.7964 29.2029 21.6167 29.4168C22.4115 29.6215 23.1406 30.5 24 30.5C24.8594 30.5 25.5896 29.623 26.3823 29.4163C27.2031 29.2051 28.2812 29.6012 29 29.1949ZM19.8333 20.75C19.8333 18.5019 21.6984 16.6875 24 16.6875C26.3016 16.6875 28.1667 18.5019 28.1667 20.75C28.1667 22.993 26.3016 24.8125 24 24.8125C21.6984 24.8125 19.8333 22.9945 19.8333 20.75ZM14.0895 32.9984C14.0062 33.2024 13.981 33.4245 14.0165 33.6413C14.052 33.858 14.147 34.0614 14.2914 34.2299C14.5859 34.5727 15.0481 34.7325 15.4955 34.6436L17.8492 34.1848L18.9653 36.3314C19.1802 36.7461 19.6042 37 20.0781 37C20.096 37 20.1127 36.9994 20.1306 36.9986C20.6254 36.9796 21.0499 36.6898 21.2369 36.243L22.9858 32.0749C20.1884 31.8393 17.6733 30.6469 15.7879 28.8274L14.0895 32.9984ZM32.2083 28.8293C30.3255 30.6488 27.8099 31.8411 25.0104 32.0768L26.7594 36.2449C26.9466 36.6916 27.3708 36.9812 27.8656 37.0005C27.8854 36.9543 27.8594 37 27.9219 37C28.3955 37 28.8193 36.7475 29.0339 36.3327L30.15 34.1857L32.5036 34.6445C32.9512 34.7334 33.4135 34.5735 33.7078 34.2307C33.8522 34.0623 33.9471 33.8589 33.9827 33.6421C34.0182 33.4253 33.993 33.2032 33.9096 32.9993L32.2083 28.8293Z" fill="white"/>
</g>
<defs>
<clipPath id="clip0_2_1113">
<rect width="20" height="26" fill="white" transform="translate(14 11)"/>
</clipPath>
</defs>
</svg>
